# xmcd
# 
# Track frame offsets:
#     150
#     25500
#     39455
#     48692
#     66987
#     82245
#     93265
#     108662
#     124472
#     134737
#     150870
#     168987
#     189087
#     208957
#     224880
# 
# Disc length: 3051
# 
# Revision: 4
# Processed by: cddbd v1.5.2PL0 Copyright (c) Steve Scherf et al.
# Submitted via: fre:ac v1.0.31
# 
DISCID=e10be90f
DTITLE=The Flying Burrito Brothers - California Jukebox
DYEAR=0
DGENRE=Rock/Pop
TTITLE0=San Fernando Road
TTITLE1=Windfall
TTITLE2=Sweet Susannah
TTITLE3=Back To Bayou Teche
TTITLE4=California Jukebox
TTITLE5=Buckaroo
TTITLE6=Tomorrow We'll Do It Again
TTITLE7=World Without You
TTITLE8=Dance, Dance, Dance
TTITLE9=Willin'
TTITLE10=Two Hearts
TTITLE11=I Ain't Livin' Long Like This
TTITLE12=Take A Walk On The Edge
TTITLE13=My Baby's Gone
TTITLE14=CJB Revisited
EXTD=
EXTT0=
EXTT1=
EXTT2=
EXTT3=
EXTT4=
EXTT5=
EXTT6=
EXTT7=
EXTT8=
EXTT9=
EXTT10=
EXTT11=
EXTT12=
EXTT13=
EXTT14=
PLAYORDER=
